<svg width="181" height="21" viewBox="0 0 181 21" fill="none" xmlns="http://www.w3.org/2000/svg">
<path d="M99.8995 0.740808C100.121 0.581119 100.348 0.407299 100.592 0.285767C100.949 0.374796 101.303 0.483611 101.661 0.574053C101.747 0.807227 101.843 1.04464 101.833 1.29901C101.831 7.57066 101.838 13.8409 101.831 20.1111C101.871 20.4249 101.653 20.6552 101.412 20.8121H100.366C100.193 20.7344 100.028 20.6439 99.8642 20.5563C99.8261 14.4712 99.8585 8.38465 99.8473 2.29954C99.8585 1.7809 99.8021 1.2552 99.8995 0.740808Z" fill="#010101"/>
<path d="M138.284 0.475131C138.772 0.339467 139.291 0.414365 139.776 0.533071C139.938 1.15769 139.875 1.80775 139.883 2.4465C139.876 3.9911 139.898 5.53428 139.872 7.07747C140.817 5.83388 142.393 5.28557 143.908 5.23186C145.275 5.17958 146.719 5.45939 147.824 6.31153C149.12 7.33466 149.803 9.00927 149.821 10.6401C149.821 13.7505 149.817 16.8609 149.824 19.9727C149.817 20.1691 149.818 20.3726 149.753 20.5619C149.257 20.9082 148.615 20.7965 148.079 20.6241C148.003 20.032 148.025 19.4342 148.025 18.8393C148.027 16.3408 148.023 13.8423 148.028 11.3438C148.027 10.3574 147.844 9.34702 147.309 8.50336C146.853 7.73177 146.044 7.19193 145.163 7.04214C144.194 6.90647 143.166 7.00539 142.3 7.48729C141.104 8.143 140.245 9.35126 139.896 10.657C139.861 13.8536 139.9 17.0516 139.878 20.2482C139.93 20.5294 139.699 20.6792 139.497 20.8121H138.264C137.814 20.5379 137.924 19.9854 137.917 19.5416C137.924 13.4155 137.92 7.29086 137.918 1.16476C137.907 0.89767 137.971 0.537311 138.284 0.475131Z" fill="#010101"/>
<path d="M125.33 1.02203C125.285 0.780376 125.487 0.612209 125.698 0.561335C126.192 0.45676 126.718 0.489263 127.179 0.705478C127.25 2.42531 127.185 4.14796 127.21 5.86921C128.714 5.83953 130.219 5.86073 131.723 5.86921C131.796 5.9116 131.942 5.99922 132.015 6.04303C132.174 6.59699 132.221 7.24422 131.928 7.76144C131.6 7.8208 131.269 7.8533 130.939 7.84341C129.696 7.8321 128.452 7.85612 127.209 7.83634C127.212 10.6514 127.198 13.4678 127.216 16.2829C127.198 17.6664 128.589 18.8647 129.951 18.5793C131.14 18.3772 131.992 17.1845 131.885 15.9932C131.939 15.9225 132.046 15.7798 132.1 15.7077C132.643 15.637 133.538 15.4081 133.785 16.078C133.828 17.3936 133.253 18.7262 132.239 19.5713C131.235 20.4404 129.79 20.7909 128.508 20.4305C126.722 19.9939 125.358 18.267 125.323 16.4298C125.339 13.5667 125.331 10.7023 125.327 7.83917C124.567 7.82645 123.801 7.89711 123.048 7.76992C122.754 7.22726 122.716 6.4698 123.052 5.94269C123.795 5.76604 124.575 5.89606 125.334 5.86073C125.327 4.2483 125.333 2.63446 125.33 1.02203Z" fill="#010101"/>
<path d="M84.9695 7.28944C86.1107 6.02465 87.7498 5.15979 89.4736 5.15697C91.3878 5.14284 93.3881 5.94834 94.5222 7.54099C95.1217 8.40161 95.5491 9.49823 95.3361 10.5581C94.7916 10.7192 94.2133 10.7249 93.6688 10.5638C93.5517 9.96599 93.4868 9.33147 93.1327 8.81567C92.4063 7.69785 91.038 7.16226 89.7515 7.09019C88.18 7.09584 86.6848 7.95787 85.7905 9.23538C84.0483 11.5742 84.2092 15.1481 86.2221 17.2749C87.2533 18.397 88.8205 19.1021 90.3538 18.8308C91.5331 18.6231 92.7603 18.0126 93.2949 16.8806C93.5164 16.4595 93.5235 15.9748 93.6617 15.5282C93.8606 15.2527 94.2542 15.3431 94.549 15.3163C94.8678 15.3148 95.346 15.2894 95.4109 15.7105C95.4236 16.94 94.8974 18.1525 94.0454 19.0315C93.0989 20.032 91.7687 20.5309 90.4526 20.8121H88.726C87.6102 20.5789 86.5325 20.1168 85.6635 19.3664C83.8156 17.7879 82.7746 15.329 82.8507 12.9054C82.8225 10.8563 83.6054 8.81284 84.9695 7.28944Z" fill="#010101"/>
<path d="M172.321 6.43871C174.414 4.63692 177.897 4.93227 179.692 7.01811C180.412 7.83775 180.918 9.0333 180.546 10.1144C180.041 10.1511 179.42 10.3362 178.993 9.98295C178.843 9.52225 178.876 8.99231 178.561 8.59663C177.514 7.17498 175.334 6.76657 173.836 7.68937C173.085 8.16137 172.589 9.06297 172.751 9.95751C172.931 10.8393 173.73 11.4385 174.539 11.7169C175.218 11.9741 175.956 11.9261 176.661 12.066C177.541 12.2129 178.427 12.4927 179.127 13.0693C180.056 13.718 180.636 14.7637 180.877 15.8589V16.8976C180.664 17.9942 180.061 19.0145 179.148 19.6688C176.678 21.5088 172.632 20.9336 170.988 18.2542C170.639 17.5745 170.229 16.687 170.659 15.9607C171.119 15.9267 171.607 15.825 172.057 15.979C172.337 16.0723 172.325 16.4101 172.398 16.6475C172.495 17.217 172.879 17.696 173.345 18.0211C174.563 18.8803 176.258 19.0597 177.598 18.3772C178.169 18.1002 178.673 17.6254 178.87 17.0078C179.147 16.2419 178.876 15.3445 178.279 14.8075C177.584 14.132 176.592 13.9313 175.658 13.8692C174.067 13.7406 172.392 13.1287 171.436 11.7819C170.319 10.113 170.773 7.68089 172.321 6.43871Z" fill="#010101"/>
<path d="M2.06047 7.73601C3.24539 6.20272 5.11869 5.14284 7.08368 5.19088C8.98801 5.15838 10.8204 6.14477 11.9912 7.62295C12.0222 6.93615 11.932 6.23663 12.0519 5.55831C12.2197 5.10892 12.7699 5.19654 13.1522 5.19088C13.4949 5.16969 13.9802 5.27285 13.9661 5.71093C13.9887 10.5115 13.9689 15.3148 13.976 20.1168C14.0253 20.4531 13.8109 20.7132 13.502 20.8121H12.4793C12.3495 20.7541 12.2211 20.6948 12.0928 20.634C11.9277 19.8469 12.0081 19.0385 11.9997 18.2401C10.9389 19.6081 9.37875 20.5775 7.65639 20.8121H6.48417C4.38658 20.5224 2.55419 19.1318 1.52585 17.3046C0.812075 16.1006 0.465064 14.7185 0.318359 13.335V12.3995C0.486223 10.7319 1.00533 9.06156 2.06047 7.73601ZM5.82823 7.44207L6.11882 7.63426C6.02995 7.59469 5.94813 7.5424 5.86632 7.49153C4.65036 7.80808 3.65729 8.72099 3.03662 9.79217C1.61754 12.1903 2.0774 15.524 4.09881 17.4403C5.05803 18.38 6.46442 18.8972 7.80027 18.6471C9.33361 18.3772 10.6159 17.2368 11.2887 15.8603C11.9489 14.6125 12.1266 13.147 11.908 11.7635C11.6005 10.0536 10.5355 8.43129 8.93864 7.68654C7.97237 7.22868 6.85657 7.1778 5.82823 7.44207Z" fill="#010101"/>
<path d="M18.8257 5.32655C19.2714 5.19512 19.7426 5.15273 20.2038 5.21491C20.4493 5.24176 20.6834 5.43254 20.6848 5.69539C20.7258 6.14901 20.699 6.60688 20.6877 7.06192C21.6497 5.76887 23.3058 5.22621 24.8645 5.2248C26.316 5.17958 27.8607 5.53711 28.9468 6.55601C30.0725 7.63567 30.6367 9.21983 30.6325 10.7644C30.6212 13.831 30.6255 16.899 30.6297 19.967C30.61 20.2214 30.6777 20.6142 30.3321 20.6623C29.868 20.8036 29.3164 20.8135 28.8932 20.5492C28.8354 20.3627 28.8368 20.1648 28.8312 19.9727C28.8326 17.0502 28.8298 14.1278 28.834 11.2039C28.8142 10.0395 28.5222 8.80578 27.697 7.94091C27.0524 7.24846 26.0819 6.92626 25.1495 6.9842C23.7205 6.9305 22.3268 7.70492 21.5383 8.88491C21.1038 9.52932 20.6792 10.2571 20.6975 11.0598C20.699 14.1038 20.7117 17.1506 20.6933 20.1945C20.7342 20.5125 20.4944 20.7202 20.2179 20.8121H19.2037C18.8934 20.7202 18.6804 20.439 18.7184 20.1097C18.7128 15.4477 18.7213 10.7842 18.7128 6.12216C18.7086 5.85225 18.7579 5.58657 18.8257 5.32655Z" fill="#010101"/>
<path d="M35.3933 5.81692C35.3355 5.3859 35.7954 5.16262 36.1621 5.19936C36.5515 5.20643 37.1425 5.1174 37.3217 5.56255C37.3851 6.06564 37.3428 6.57438 37.3414 7.08029C38.3035 5.78159 39.9553 5.26295 41.5126 5.23045C42.926 5.20078 44.4255 5.52722 45.5089 6.48959C46.7164 7.55653 47.2552 9.19581 47.3173 10.7729C47.3187 13.6939 47.3131 16.6164 47.3201 19.5374C47.3229 19.8963 47.2834 20.2525 47.2341 20.6072C46.7023 20.7965 46.0421 20.9251 45.5568 20.5506C45.4807 20.3683 45.4877 20.1663 45.4821 19.9727C45.4877 17.046 45.4821 14.1179 45.4849 11.1898C45.4891 9.96316 45.1196 8.66587 44.2069 7.80384C43.2463 6.92767 41.8117 6.82027 40.6042 7.15378C39.391 7.46185 38.429 8.39596 37.8379 9.47279C37.5812 9.96034 37.3174 10.4818 37.3471 11.0499C37.3471 14.1193 37.3541 17.1901 37.3471 20.2595C37.3795 20.5125 37.151 20.6637 36.9888 20.8121H35.7037C35.5133 20.6227 35.344 20.391 35.3891 20.1055C35.3919 15.3431 35.3849 10.5793 35.3933 5.81692Z" fill="#010101"/>
<path d="M52.6001 5.36329C53.1037 5.26013 53.6524 5.13577 54.1405 5.36753C54.376 5.46645 54.3055 5.77028 54.3295 5.97237C54.321 8.89339 54.3281 11.8144 54.3252 14.7354C54.3351 15.9946 54.6723 17.3484 55.6399 18.2189C56.6528 19.1233 58.1593 19.1912 59.4049 18.7997C60.7986 18.3532 61.8156 17.1336 62.3234 15.7953C62.497 15.3671 62.4504 14.8965 62.4546 14.4457C62.4462 11.6674 62.4546 8.88774 62.4504 6.10803C62.4504 5.79572 62.4363 5.3534 62.8115 5.24741C63.2347 5.15838 63.6847 5.16121 64.1079 5.25165C64.4789 5.36753 64.4337 5.8042 64.4408 6.11227C64.4351 10.7786 64.4422 15.4463 64.4365 20.1126C64.4775 20.4305 64.2898 20.6849 64.0091 20.8121H62.923C62.7833 20.7301 62.638 20.651 62.528 20.5323C62.3883 20.032 62.473 19.5021 62.456 18.9919C61.3529 20.3415 59.5445 20.8389 57.8645 20.7881C56.5089 20.7245 55.1011 20.3175 54.1179 19.3367C52.9823 18.2133 52.5267 16.5768 52.4872 15.0152C52.4858 12.1451 52.49 9.27495 52.4858 6.4048C52.4844 6.05433 52.538 5.7081 52.6001 5.36329Z" fill="#010101"/>
<path d="M69.5021 5.8254C69.4485 5.45373 69.787 5.19371 70.1354 5.20925C70.577 5.20501 71.2117 5.08631 71.4487 5.57385C71.5362 6.06422 71.4868 6.5659 71.491 7.06051C72.6336 5.53287 74.6931 5.10044 76.4987 5.25589C77.939 5.36188 79.4342 5.89464 80.3596 7.05768C81.1086 8.05114 81.5332 9.33006 81.3738 10.5779C80.8378 10.756 80.2101 10.8549 79.6924 10.5708C79.5259 9.91935 79.533 9.21277 79.1747 8.61924C78.5413 7.41239 77.0954 6.88245 75.7934 6.98702C73.7297 6.99692 71.9749 8.69696 71.5037 10.6372C71.4783 13.7929 71.5066 16.9499 71.4924 20.1069C71.5235 20.3881 71.3415 20.6072 71.1793 20.8121H69.8717C69.6262 20.6566 69.4555 20.4065 69.495 20.1055C69.4992 15.3459 69.4865 10.585 69.5021 5.8254Z" fill="#010101"/>
<path d="M110.094 5.89182C111.687 5.04391 113.66 4.94358 115.316 5.67277C117.356 6.54611 118.826 8.4864 119.376 10.6104C119.871 12.4108 119.736 14.3595 119.075 16.0992C118.944 16.4765 118.506 16.7181 118.625 17.1633C118.274 17.6254 117.974 18.1271 117.584 18.5609C116.549 19.7762 115.079 20.6058 113.492 20.8121H112.369C110.221 20.5337 108.355 19.0979 107.335 17.2141C106.174 15.1509 105.875 12.61 106.58 10.3433C107.129 8.48781 108.383 6.81603 110.094 5.89182ZM112.12 7.36717C110.105 7.78123 108.602 9.59009 108.212 11.5643C107.779 13.5653 108.358 15.7812 109.778 17.2664C110.685 18.2062 111.99 18.8195 113.312 18.6937C114.602 18.5892 115.772 17.8359 116.546 16.8185C118.395 14.4797 118.325 10.7489 116.153 8.63902C115.121 7.59186 113.568 7.06334 112.12 7.36717Z" fill="#010101"/>
<path d="M158.031 5.53146C159.463 5.04815 161.062 5.21067 162.418 5.85366C164.078 6.64362 165.272 8.24757 165.739 10.0084C166.056 11.2393 166.253 12.5535 166.007 13.8141C165.64 14.0458 165.201 13.9935 164.791 13.9978C161.594 13.9879 158.399 14.0105 155.203 13.9865C155.465 15.6568 156.321 17.3442 157.819 18.2175C158.77 18.7898 159.944 18.9071 161.01 18.6259C162.252 18.3503 163.555 17.5929 163.927 16.297C164.047 15.9183 163.943 15.2117 164.527 15.223C165.004 15.2301 165.819 15.0407 165.888 15.7261C165.818 16.6008 165.578 17.4784 165.083 18.2104C163.315 20.8107 159.404 21.4805 156.783 19.8214C155.197 18.8294 154.087 17.1675 153.613 15.37C153.071 13.3929 153.226 11.2322 154.028 9.34702C154.775 7.61023 156.196 6.09673 158.031 5.53146ZM157.458 8.04125C156.192 8.97394 155.476 10.486 155.197 12.0052C158.186 12.0123 161.177 12.0137 164.166 12.0038C164.063 11.0824 163.858 10.1539 163.386 9.34702C162.837 8.33236 161.854 7.55936 160.725 7.30923C159.598 7.01105 158.37 7.34032 157.458 8.04125Z" fill="#010101"/>
</svg>
